External Loads File
version=1
nRows=54
nColumns=13
Range=5.000000e-03-10 seconds
endheader
time 	forceRightX 	forceRightY 	forceRightZ 	pointRightX 	pointRightY 	pointRightZ 	forceLeftX 	forceLeftY 	forceLeftZ 	pointLeftX 	pointLeftY 	pointLeftZ 		
0.005000 -104.581128 220.013988 -0.000000 0.318074 0.365890 -0.105849 20.536970 281.751513 -0.000000 0.019543 0.274569 -0.341935
0.010000 -104.096416 220.496795 -0.000000 0.317998 0.365617 -0.105839 20.537276 281.837332 -0.000000 0.019559 0.274793 -0.341948
0.015000 -103.666208 220.943225 -0.000000 0.317922 0.365363 -0.105854 20.574983 281.935547 -0.000000 0.019568 0.275025 -0.341969
0.020000 -103.272461 221.342401 -0.000000 0.317894 0.365087 -0.105877 20.711039 282.030364 -0.000000 0.019582 0.275247 -0.341963
0.025000 -103.562756 221.365981 -0.000000 0.317766 0.364929 -0.105726 20.098819 282.141032 -0.000000 0.019288 0.274623 -0.341687
0.030000 -103.404603 221.517781 -0.000000 0.317714 0.364741 -0.105723 20.118349 282.118281 -0.000000 0.019249 0.274692 -0.341631
0.035000 -103.158992 221.611030 -0.000000 0.317683 0.364552 -0.105735 20.249384 281.979173 -0.000000 0.019228 0.274877 -0.341613
0.040000 -102.953251 221.578130 -0.000000 0.317643 0.364383 -0.105741 20.293947 281.752929 -0.000000 0.019229 0.274994 -0.341575
0.045000 -102.671298 221.473310 -0.000000 0.317696 0.364186 -0.105700 20.368358 281.458780 -0.000000 0.019222 0.275093 -0.341587
0.050000 -102.399800 221.268104 -0.000000 0.317666 0.364056 -0.105721 20.332571 281.130684 -0.000000 0.019245 0.275208 -0.341613
0.055000 -102.134844 220.992214 -0.000000 0.317623 0.363924 -0.105731 20.201815 280.793435 -0.000000 0.019250 0.275258 -0.341608
0.060000 -101.962089 220.645486 -0.000000 0.317606 0.363894 -0.105761 19.936089 280.483078 -0.000000 0.019282 0.275250 -0.341619
0.065000 -101.821576 220.291898 -0.000000 0.317552 0.363924 -0.105768 19.689933 280.218203 -0.000000 0.019288 0.275235 -0.341603
0.070000 -101.754690 219.929317 -0.000000 0.317491 0.364022 -0.105777 19.431956 280.012693 -0.000000 0.019332 0.275136 -0.341650
0.075000 -101.683781 219.587619 -0.000000 0.317423 0.364205 -0.105782 19.212643 279.851359 -0.000000 0.019387 0.274996 -0.341617
0.080000 -101.604965 219.249338 -0.000000 0.317354 0.364452 -0.105754 18.964090 279.712163 -0.000000 0.019424 0.274730 -0.341563
0.085000 -101.456452 218.915705 -0.000000 0.317255 0.364721 -0.105768 18.709134 279.565301 -0.000000 0.019492 0.274367 -0.341544
0.090000 -101.217229 218.555832 -0.000000 0.317144 0.365070 -0.105787 18.437021 279.384139 -0.000000 0.019575 0.273956 -0.341590
0.095000 -100.917716 218.102183 -0.000000 0.317005 0.365566 -0.105816 18.097328 279.142716 -0.000000 0.019684 0.273514 -0.341594
0.100000 -100.496112 217.527813 -0.000000 0.316883 0.366140 -0.105826 17.812311 278.805968 -0.000000 0.019777 0.273050 -0.341600
0.105000 -100.106611 216.713056 -0.000000 0.316732 0.366779 -0.105804 17.467600 278.361650 -0.000000 0.019905 0.272403 -0.341569
0.110000 -99.732252 215.628639 -0.000000 0.316528 0.367480 -0.105855 17.149272 277.791898 -0.000000 0.020071 0.271633 -0.341628
0.115000 -99.312606 214.284508 -0.000000 0.316380 0.368381 -0.105886 16.953967 277.080547 -0.000000 0.020180 0.270919 -0.341646
0.120000 -98.926644 212.656636 -0.000000 0.316160 0.369193 -0.105884 16.777716 276.226388 -0.000000 0.020368 0.269987 -0.341627
0.125000 -98.697873 210.733971 -0.000000 0.315910 0.370275 -0.105922 16.459615 275.245797 -0.000000 0.020543 0.269006 -0.341641
0.130000 -98.472794 208.661664 -0.000000 0.315631 0.371358 -0.105936 16.183159 274.158059 -0.000000 0.020758 0.267959 -0.341661
0.135000 -98.384772 206.465815 -0.000000 0.315349 0.372631 -0.105903 15.713272 273.030594 -0.000000 0.021026 0.266787 -0.341648
0.140000 -98.367350 204.268219 -0.000000 0.314862 0.373925 -0.105789 15.052298 271.936480 -0.000000 0.021325 0.265419 -0.341648
0.145000 -98.177777 202.269607 -0.000000 0.314474 0.375366 -0.105831 14.477679 270.947974 -0.000000 0.021592 0.264165 -0.341606
0.150000 -98.135074 200.390581 -0.000000 0.314048 0.376931 -0.105902 13.600192 270.174398 -0.000000 0.021880 0.262594 -0.341633
0.155000 -98.063077 198.777462 -0.000000 0.313506 0.378537 -0.105856 12.756813 269.672035 -0.000000 0.022260 0.261039 -0.341679
0.160000 -97.984029 197.452859 -0.000000 0.313049 0.380228 -0.105914 12.017085 269.485182 -0.000000 0.022640 0.259460 -0.341654
0.165000 -98.016209 196.356271 -0.000000 0.312462 0.381970 -0.105971 11.279998 269.633408 -0.000000 0.022997 0.257757 -0.341633
0.170000 -98.147121 195.463771 -0.000000 0.311955 0.383791 -0.105713 10.597390 270.107255 -0.000000 0.023414 0.255981 -0.341632
0.175000 -98.398388 194.717499 -0.000000 0.311398 0.385674 -0.105800 9.944533 270.886096 -0.000000 0.023823 0.254125 -0.341626
0.180000 -98.766128 194.064678 -0.000000 0.310810 0.387658 -0.105879 9.278753 271.929017 -0.000000 0.024309 0.252275 -0.341639
0.185000 -99.304083 193.424602 -0.000000 0.310239 0.389939 -0.105906 8.445839 273.178306 -0.000000 0.024772 0.250433 -0.341581
0.190000 -99.818802 192.854193 -0.000000 0.309642 0.392024 -0.105933 7.675161 274.565002 -0.000000 0.025304 0.248514 -0.341641
0.195000 -100.485885 192.236331 -0.000000 0.308987 0.394236 -0.105937 6.743271 276.060796 -0.000000 0.025801 0.246515 -0.341606
0.200000 -101.202715 191.613594 -0.000000 0.308325 0.396402 -0.105977 5.857390 277.656914 -0.000000 0.026427 0.244547 -0.341665
0.205000 -102.030977 190.960752 -0.000000 0.307659 0.398604 -0.105969 4.969762 279.369014 -0.000000 0.026980 0.242466 -0.341593
0.210000 -102.927624 190.322852 -0.000000 0.306911 0.400733 -0.106022 4.125621 281.211488 -0.000000 0.027662 0.240385 -0.341615
0.215000 -103.926345 189.709465 -0.000000 0.306106 0.402988 -0.105970 3.188236 283.194930 -0.000000 0.028362 0.238308 -0.341646
0.220000 -104.931438 189.199338 -0.000000 0.305294 0.405264 -0.105995 2.172221 285.326156 -0.000000 0.029084 0.236208 -0.341580
0.225000 -105.871218 188.862426 -0.000000 0.304447 0.407454 -0.105991 1.078954 287.622123 -0.000000 0.029844 0.234130 -0.341625
0.230000 -106.827805 188.691293 -0.000000 0.303560 0.409701 -0.106028 -0.269617 290.111145 -0.000000 0.030635 0.232100 -0.341646
0.235000 -107.711019 188.782523 -0.000000 0.302687 0.411725 -0.106058 -1.739437 292.823220 -0.000000 0.031412 0.230065 -0.341606
0.240000 -108.696795 189.087579 -0.000000 0.301785 0.413700 -0.106059 -3.558712 295.785334 -0.000000 0.032235 0.228077 -0.341660
0.245000 -109.844877 189.631277 -0.000000 0.300838 0.415682 -0.106106 -5.741332 299.021441 -0.000000 0.033093 0.226213 -0.341620
0.250000 -111.005467 190.571679 -0.000000 0.300019 0.417491 -0.106142 -7.970727 302.549763 -0.000000 0.033806 0.224457 -0.341632
0.255000 -112.281893 191.934182 -0.000000 0.299212 0.419171 -0.106227 -10.331163 306.339931 -0.000000 0.034525 0.222884 -0.341668
0.260000 -113.607156 193.860575 -0.000000 0.298398 0.420624 -0.106302 -12.564541 310.290702 -0.000000 0.035163 0.221573 -0.341576
0.265000 -115.233313 196.334373 -0.000000 0.297591 0.421920 -0.106190 -14.763160 314.172067 -0.000000 0.035699 0.220273 -0.341579
0.270000 -117.051088 199.600489 -0.000000 0.296898 0.422968 -0.106241 -16.246917 317.655973 -0.000000 0.036097 0.219342 -0.341556
